<?xml version="1.0" encoding="utf-8"?>
<!-- Generator: Adobe Illustrator 23.0.1, SVG Export Plug-In . SVG Version: 6.00 Build 0)  -->
<svg version="1.1"
	 id="Layer_1" image-rendering="optimizeQuality" text-rendering="geometricPrecision" shape-rendering="geometricPrecision" xmlns:xodm="http://www.corel.com/coreldraw/odm/2003"
	 xmlns="http://www.w3.org/2000/svg" xmlns:xlink="http://www.w3.org/1999/xlink" x="0px" y="0px" width="18" height="18" viewBox="0 0 790.1 780"
	 style="enable-background:new 0 0 790.1 780;" xml:space="preserve" >
<style type="text/css">
	.st0{fill:#EFC74B;}
	.st1{fill:#FFFFFF;}
</style>
<g id="Layer_x0020_1">
	<g id="_1421344023328">
		<path class="st0" d="M767.8,481.9c-51.3,205.7-259.6,330.9-465.4,279.6C96.8,710.2-28.4,501.9,22.9,296.2
			C74.1,90.4,282.5-34.8,488.2,16.5C693.9,67.8,819.1,276.2,767.8,481.9L767.8,481.9L767.8,481.9z"/>
		<path class="st1" d="M564.7,334.3c7.6-51.1-31.3-78.6-84.5-96.9l17.3-69.2l-42.1-10.5l-16.8,67.4c-11.1-2.8-22.5-5.4-33.8-7.9
			l16.9-67.8l-42.1-10.5L362.3,208c-9.2-2.1-18.2-4.1-26.9-6.3l0-0.2l-58.1-14.5l-11.2,45c0,0,31.3,7.2,30.6,7.6
			c17.1,4.3,20.1,15.6,19.6,24.5l-19.7,78.9c1.2,0.3,2.7,0.7,4.4,1.4c-1.4-0.3-2.9-0.7-4.5-1.1l-27.6,110.5c-2.1,5.2-7.4,13-19.3,10
			c0.4,0.6-30.6-7.6-30.6-7.6l-20.9,48.2l54.8,13.7c10.2,2.6,20.2,5.2,30,7.8l-17.4,70l42.1,10.5L325,537c11.5,3.1,22.7,6,33.6,8.7
			l-17.2,68.9l42.1,10.5l17.4-69.9c71.9,13.6,125.9,8.1,148.6-56.9c18.3-52.3-0.9-82.5-38.7-102.2
			C538.4,389.8,559.2,371.7,564.7,334.3L564.7,334.3L564.7,334.3z M468.4,469.3c-13,52.3-101.1,24-129.7,16.9l23.1-92.8
			C390.4,400.6,482,414.7,468.4,469.3L468.4,469.3z M481.4,333.6c-11.9,47.6-85.2,23.4-109,17.5l21-84.1
			C417.2,272.8,493.8,283.9,481.4,333.6L481.4,333.6z"/>
	</g>
</g>
</svg>
