<?xml version="1.0" encoding="utf-8"?>
<!-- Generator: Adobe Illustrator 23.0.1, SVG Export Plug-In . SVG Version: 6.00 Build 0)  -->
<svg version="1.1" id="Layer_1" xmlns="http://www.w3.org/2000/svg" xmlns:xlink="http://www.w3.org/1999/xlink" x="0px" y="0px"
	 viewBox="0 0 175.7 175.7" style="enable-background:new 0 0 175.7 175.7;" xml:space="preserve">
<style type="text/css">
	.st0{fill:url(#SVGID_1_);}
	.st1{fill:url(#Derive_1_);}
</style>
<linearGradient id="SVGID_1_" gradientUnits="userSpaceOnUse" x1="25.6395" y1="25.6395" x2="150.0903" y2="150.0903">
	<stop  offset="0" style="stop-color:#4D4D4D"/>
	<stop  offset="1" style="stop-color:#333333"/>
</linearGradient>
<circle class="st0" cx="87.9" cy="87.9" r="88"/>
<linearGradient id="Derive_1_" gradientUnits="userSpaceOnUse" x1="108.4836" y1="107.6607" x2="67.0645" y2="66.2416">
	<stop  offset="0" style="stop-color:#F3A91C"/>
	<stop  offset="1" style="stop-color:#D0B06A"/>
</linearGradient>
<path id="Derive" class="st1" d="M108.2,76.1c-0.1-7.8-0.8-13.3-1.9-16.4c-1.1-3.1-2.6-5.3-4.5-6.7c-1.8-1.4-3.9-2.1-6.3-2.1
	c-2.7,0-5.2,0.8-7.7,2.5c-2.4,1.6-4.8,4.6-7.1,8.7c-0.6,1.1-1.1,1.8-1.4,2.1c-0.4,0.3-0.8,0.4-1.3,0.4c-0.8,0-1.5-0.3-2-0.8
	c-0.5-0.5-0.8-1.1-0.8-1.8c0-1.2,1.1-3.3,3.2-6.5c2.1-3.1,4.7-5.6,7.9-7.4c3.1-1.8,6.2-2.7,9.2-2.7c4.4,0,8.2,1.6,11.2,4.9
	c4.5,4.7,6.7,12.8,6.7,24.5c0,10.5-1.6,19.7-4.8,27.6c-3.2,7.9-7.6,13.8-13.2,17.7c-5.5,3.9-11,5.8-16.5,5.8
	c-5.1,0-9.2-1.6-12.4-4.8c-3.1-3.2-4.7-7.6-4.7-13.1c0-4.8,1.1-9.1,3.2-13.2c2.1-4,5-7.4,8.6-10c3.6-2.6,8.2-4.7,13.7-6.2
	C92.9,77.1,99.8,76.3,108.2,76.1z M108,81.5c-6.5,0.2-11.4,0.6-14.8,1.2c-5.5,1-10.2,2.6-14,4.8c-3.8,2.2-6.8,5.2-8.9,8.9
	c-2.1,3.8-3.2,7.7-3.2,11.7c0,3.7,1.2,6.7,3.5,9c2.3,2.3,5.2,3.4,8.7,3.4c3.3,0,6.7-0.9,10.2-2.8c3.5-1.9,6.5-4.5,9.1-7.7
	c2.6-3.3,4.8-7.7,6.6-13.3C106.3,92.9,107.3,87.8,108,81.5z"/>
</svg>
