<?xml version="1.0" encoding="utf-8"?>
<!-- Generator: Adobe Illustrator 19.0.0, SVG Export Plug-In . SVG Version: 6.00 Build 0)  -->
<svg version="1.1" id="Layer_2" xmlns="http://www.w3.org/2000/svg" xmlns:xlink="http://www.w3.org/1999/xlink" x="0px" y="0px"
	 viewBox="0 0 200 200" style="enable-background:new 0 0 200 200;" xml:space="preserve">
<style type="text/css">
	.st0{fill:url(#SVGID_1_);}
	.st1{fill:#FFFFFF;}
</style>
<linearGradient id="SVGID_1_" gradientUnits="userSpaceOnUse" x1="165.7609" y1="165.6609" x2="34.2391" y2="34.1391">
	<stop  offset="0" style="stop-color:#F3A91C"/>
	<stop  offset="1" style="stop-color:#D0B06A"/>
</linearGradient>
<circle class="st0" cx="100" cy="99.9" r="93"/>
<g>
	<path class="st1" d="M126.2,89.4c-0.2-10.1-1-17.2-2.5-21.2c-1.5-4-3.4-6.9-5.8-8.7c-2.4-1.8-5.1-2.7-8.1-2.7
		c-3.4,0-6.7,1.1-9.9,3.2c-3.1,2.1-6.2,5.9-9.2,11.3c-0.8,1.5-1.4,2.4-1.9,2.7c-0.5,0.4-1,0.5-1.7,0.5c-1.1,0-2-0.3-2.6-1
		c-0.7-0.6-1-1.4-1-2.3c0-1.5,1.4-4.3,4.1-8.4c2.7-4.1,6.1-7.3,10.2-9.6c4.1-2.3,8-3.5,11.9-3.5c5.7,0,10.5,2.1,14.5,6.3
		c5.8,6,8.6,16.5,8.6,31.6c0,13.5-2.1,25.4-6.3,35.6c-4.2,10.2-9.8,17.8-17,22.8c-7.2,5-14.2,7.5-21.2,7.5c-6.6,0-11.9-2.1-15.9-6.2
		c-4-4.1-6-9.8-6-16.9c0-6.1,1.4-11.8,4.2-17c2.8-5.2,6.5-9.5,11.1-12.9c4.7-3.4,10.5-6.1,17.6-8C106.5,90.7,115.4,89.6,126.2,89.4z
		 M126,96.3c-8.3,0.2-14.7,0.7-19.1,1.5c-7.2,1.3-13.2,3.4-18.1,6.2c-4.9,2.9-8.8,6.7-11.5,11.5c-2.7,4.8-4.1,9.9-4.1,15.1
		c0,4.8,1.5,8.7,4.5,11.6c3,3,6.7,4.4,11.2,4.4c4.3,0,8.7-1.2,13.2-3.7c4.5-2.4,8.4-5.8,11.7-10c3.3-4.2,6.2-9.9,8.5-17.1
		C123.9,111,125.1,104.4,126,96.3z"/>
</g>
</svg>
