<?xml version="1.0" encoding="UTF-8"?>
<svg xmlns="http://www.w3.org/2000/svg" xmlns:xlink="http://www.w3.org/1999/xlink" width="18" height="18" viewBox="0 0 18 18" version="1.1">
<g id="surface1">
<path style=" stroke:none;fill-rule:nonzero;fill:rgb(23.921569%,12.54902%,58.823529%);fill-opacity:1;" d="M 18 9 C 18 13.96875 13.96875 18 9 18 C 4.03125 18 0 13.96875 0 9 C 0 4.03125 4.03125 0 9 0 C 13.96875 0 18 4.03125 18 9 Z M 18 9 "/>
<path style=" stroke:none;fill-rule:nonzero;fill:rgb(100%,100%,100%);fill-opacity:1;" d="M 10.53125 6.089844 L 9.929688 6.089844 L 9.929688 11.910156 L 10.53125 11.910156 Z M 10.53125 6.089844 "/>
<path style=" stroke:none;fill-rule:nonzero;fill:rgb(100%,100%,100%);fill-opacity:1;" d="M 8.707031 6.691406 L 8.707031 11.316406 L 4.078125 11.316406 L 4.078125 6.691406 L 8.707031 6.691406 M 9.304688 6.089844 L 3.480469 6.089844 L 3.480469 11.914062 L 9.304688 11.914062 Z M 9.304688 6.089844 "/>
<path style=" stroke:none;fill-rule:nonzero;fill:rgb(0%,0%,0%);fill-opacity:1;" d="M 11.210938 11.453125 L 12.449219 11.453125 C 12.621094 11.453125 12.75 11.417969 12.839844 11.351562 C 12.929688 11.285156 12.96875 11.179688 12.96875 11.035156 C 12.96875 10.890625 12.929688 10.78125 12.839844 10.714844 C 12.75 10.648438 12.621094 10.613281 12.449219 10.613281 L 11.210938 10.613281 L 11.210938 10.15625 L 12.425781 10.15625 C 12.730469 10.15625 12.964844 10.230469 13.121094 10.378906 C 13.28125 10.53125 13.359375 10.746094 13.359375 11.035156 C 13.359375 11.320312 13.28125 11.539062 13.121094 11.6875 C 12.957031 11.835938 12.722656 11.910156 12.425781 11.910156 L 11.210938 11.910156 C 11.210938 11.914062 11.210938 11.453125 11.210938 11.453125 Z M 12.652344 9.445312 C 12.761719 9.4375 12.84375 9.390625 12.90625 9.3125 C 12.96875 9.234375 13 9.132812 13 9 C 13 8.890625 12.976562 8.800781 12.933594 8.734375 C 12.886719 8.667969 12.828125 8.632812 12.742188 8.632812 C 12.6875 8.632812 12.640625 8.652344 12.605469 8.6875 C 12.570312 8.722656 12.542969 8.777344 12.527344 8.84375 C 12.507812 8.910156 12.484375 9.019531 12.453125 9.160156 C 12.429688 9.300781 12.394531 9.417969 12.351562 9.515625 C 12.308594 9.613281 12.25 9.691406 12.167969 9.75 C 12.082031 9.808594 11.972656 9.839844 11.835938 9.839844 C 11.710938 9.839844 11.601562 9.804688 11.507812 9.738281 C 11.410156 9.671875 11.332031 9.574219 11.277344 9.457031 C 11.222656 9.335938 11.195312 9.199219 11.195312 9.046875 C 11.195312 8.890625 11.222656 8.746094 11.277344 8.628906 C 11.339844 8.5 11.417969 8.40625 11.519531 8.332031 C 11.621094 8.261719 11.734375 8.226562 11.859375 8.21875 L 11.859375 8.667969 C 11.769531 8.683594 11.691406 8.71875 11.636719 8.785156 C 11.585938 8.851562 11.554688 8.941406 11.554688 9.046875 C 11.554688 9.148438 11.578125 9.226562 11.621094 9.292969 C 11.664062 9.355469 11.722656 9.382812 11.800781 9.382812 C 11.855469 9.382812 11.902344 9.367188 11.933594 9.328125 C 11.960938 9.292969 11.988281 9.238281 12.011719 9.171875 C 12.027344 9.109375 12.050781 9.003906 12.078125 8.863281 C 12.101562 8.71875 12.136719 8.597656 12.179688 8.5 C 12.21875 8.40625 12.28125 8.328125 12.359375 8.269531 C 12.4375 8.207031 12.542969 8.179688 12.683594 8.179688 C 12.8125 8.179688 12.929688 8.214844 13.03125 8.285156 C 13.132812 8.359375 13.214844 8.453125 13.269531 8.585938 C 13.332031 8.710938 13.359375 8.855469 13.359375 9.011719 C 13.359375 9.179688 13.332031 9.335938 13.265625 9.46875 C 13.203125 9.601562 13.113281 9.707031 13.007812 9.78125 C 12.898438 9.859375 12.773438 9.894531 12.640625 9.894531 C 12.644531 9.894531 12.652344 9.445312 12.652344 9.445312 Z M 11.210938 7.902344 L 11.210938 7.164062 C 11.210938 6.949219 11.261719 6.761719 11.351562 6.601562 C 11.441406 6.4375 11.566406 6.3125 11.726562 6.222656 C 11.890625 6.132812 12.078125 6.089844 12.28125 6.089844 C 12.492188 6.089844 12.671875 6.132812 12.832031 6.222656 C 12.996094 6.3125 13.121094 6.4375 13.210938 6.601562 C 13.300781 6.761719 13.347656 6.953125 13.347656 7.164062 L 13.347656 7.902344 C 13.347656 7.902344 11.210938 7.902344 11.210938 7.902344 Z M 12.964844 7.164062 C 12.964844 6.972656 12.90625 6.820312 12.777344 6.714844 C 12.652344 6.605469 12.484375 6.550781 12.28125 6.550781 C 12.070312 6.550781 11.910156 6.605469 11.78125 6.714844 C 11.65625 6.820312 11.597656 6.972656 11.597656 7.164062 L 11.597656 7.445312 L 12.96875 7.445312 Z M 12.964844 7.164062 "/>
<path style=" stroke:none;fill-rule:nonzero;fill:rgb(100%,100%,100%);fill-opacity:1;" d="M 11.210938 11.453125 L 12.449219 11.453125 C 12.621094 11.453125 12.75 11.417969 12.839844 11.351562 C 12.929688 11.285156 12.96875 11.179688 12.96875 11.035156 C 12.96875 10.890625 12.929688 10.78125 12.839844 10.714844 C 12.75 10.648438 12.621094 10.613281 12.449219 10.613281 L 11.210938 10.613281 L 11.210938 10.15625 L 12.425781 10.15625 C 12.730469 10.15625 12.964844 10.230469 13.121094 10.378906 C 13.28125 10.53125 13.359375 10.746094 13.359375 11.035156 C 13.359375 11.320312 13.28125 11.539062 13.121094 11.6875 C 12.957031 11.835938 12.722656 11.910156 12.425781 11.910156 L 11.210938 11.910156 C 11.210938 11.914062 11.210938 11.453125 11.210938 11.453125 Z M 12.652344 9.445312 C 12.761719 9.4375 12.84375 9.390625 12.90625 9.3125 C 12.96875 9.234375 13 9.132812 13 9 C 13 8.890625 12.976562 8.800781 12.933594 8.734375 C 12.886719 8.667969 12.828125 8.632812 12.742188 8.632812 C 12.6875 8.632812 12.640625 8.652344 12.605469 8.6875 C 12.570312 8.722656 12.542969 8.777344 12.527344 8.84375 C 12.507812 8.910156 12.484375 9.019531 12.453125 9.160156 C 12.429688 9.300781 12.394531 9.417969 12.351562 9.515625 C 12.308594 9.613281 12.25 9.691406 12.167969 9.75 C 12.082031 9.808594 11.972656 9.839844 11.835938 9.839844 C 11.710938 9.839844 11.601562 9.804688 11.507812 9.738281 C 11.410156 9.671875 11.332031 9.574219 11.277344 9.457031 C 11.222656 9.335938 11.195312 9.199219 11.195312 9.046875 C 11.195312 8.890625 11.222656 8.746094 11.277344 8.628906 C 11.339844 8.5 11.417969 8.40625 11.519531 8.332031 C 11.621094 8.261719 11.734375 8.226562 11.859375 8.21875 L 11.859375 8.667969 C 11.769531 8.683594 11.691406 8.71875 11.636719 8.785156 C 11.585938 8.851562 11.554688 8.941406 11.554688 9.046875 C 11.554688 9.148438 11.578125 9.226562 11.621094 9.292969 C 11.664062 9.355469 11.722656 9.382812 11.800781 9.382812 C 11.855469 9.382812 11.902344 9.367188 11.933594 9.328125 C 11.960938 9.292969 11.988281 9.238281 12.011719 9.171875 C 12.027344 9.109375 12.050781 9.003906 12.078125 8.863281 C 12.101562 8.71875 12.136719 8.597656 12.179688 8.5 C 12.21875 8.40625 12.28125 8.328125 12.359375 8.269531 C 12.4375 8.207031 12.542969 8.179688 12.683594 8.179688 C 12.8125 8.179688 12.929688 8.214844 13.03125 8.285156 C 13.132812 8.359375 13.214844 8.453125 13.269531 8.585938 C 13.332031 8.710938 13.359375 8.855469 13.359375 9.011719 C 13.359375 9.179688 13.332031 9.335938 13.265625 9.46875 C 13.203125 9.601562 13.113281 9.707031 13.007812 9.78125 C 12.898438 9.859375 12.773438 9.894531 12.640625 9.894531 C 12.644531 9.894531 12.652344 9.445312 12.652344 9.445312 Z M 11.210938 7.902344 L 11.210938 7.164062 C 11.210938 6.949219 11.261719 6.761719 11.351562 6.601562 C 11.441406 6.4375 11.566406 6.3125 11.726562 6.222656 C 11.890625 6.132812 12.078125 6.089844 12.28125 6.089844 C 12.492188 6.089844 12.671875 6.132812 12.832031 6.222656 C 12.996094 6.3125 13.121094 6.4375 13.210938 6.601562 C 13.300781 6.761719 13.347656 6.953125 13.347656 7.164062 L 13.347656 7.902344 C 13.347656 7.902344 11.210938 7.902344 11.210938 7.902344 Z M 12.964844 7.164062 C 12.964844 6.972656 12.90625 6.820312 12.777344 6.714844 C 12.652344 6.605469 12.484375 6.550781 12.28125 6.550781 C 12.070312 6.550781 11.910156 6.605469 11.78125 6.714844 C 11.65625 6.820312 11.597656 6.972656 11.597656 7.164062 L 11.597656 7.445312 L 12.96875 7.445312 Z M 12.964844 7.164062 "/>
</g>
</svg>
