<?xml version="1.0" encoding="utf-8"?>
<!-- Generator: Adobe Illustrator 23.0.1, SVG Export Plug-In . SVG Version: 6.00 Build 0)  -->
<svg version="1.1" id="USD" xmlns="http://www.w3.org/2000/svg" xmlns:xlink="http://www.w3.org/1999/xlink" x="0px" y="0px"
	 viewBox="0 0 300 300" style="enable-background:new 0 0 300 300;" xml:space="preserve">
<style type="text/css">
	.st0{fill:#3D2096;}
	.st1{fill:#FFFFFF;}
</style>
<g id="Main">
	<g>
		<circle class="st0" cx="150" cy="150" r="150"/>
	</g>
	<g id="Logo">
		<g id="XMLID_1_">
			<polygon class="st1" points="175.5,101.5 165.5,101.5 165.5,198.5 175.5,198.5 			"/>
		</g>
		<g id="XMLID_2_">
			<path class="st1" d="M145.1,111.5v77.1H68v-77.1H145.1 M155.1,101.5H58v97.1h97.1V101.5L155.1,101.5z"/>
		</g>
	</g>
</g>
<g id="Currency">
	<g id="USD_1_">
		<g transform="rotate(-90 189.035 14.062)">
			<g>
				<path id="a" d="M12.2,11.9v20.6c0,2.9,0.6,5,1.7,6.5s2.9,2.2,5.3,2.2s4.2-0.7,5.3-2.2c1.1-1.5,1.7-3.6,1.7-6.5V11.9h7.6v20.2
					c0,5.1-1.2,9-3.7,11.6c-2.5,2.7-6.1,4-10.9,4s-8.4-1.3-10.9-4C5.8,41,4.6,37.1,4.6,32.1V11.9C4.5,11.9,12.2,11.9,12.2,11.9z
					 M45.7,35.9c0.1,1.8,0.9,3.2,2.2,4.2c1.3,1.1,3,1.6,5.2,1.6c1.8,0,3.3-0.4,4.4-1.1c1.1-0.8,1.7-1.8,1.7-3.2
					c0-0.9-0.3-1.7-0.9-2.3s-1.5-1-2.6-1.3s-2.9-0.7-5.3-1.2c-2.3-0.4-4.3-1-5.9-1.7s-2.9-1.7-3.9-3.1s-1.5-3.2-1.5-5.5
					c0-2.1,0.6-3.9,1.7-5.5s2.7-2.9,4.7-3.8s4.3-1.4,6.8-1.4c2.6,0,5,0.5,7,1.4c2.1,1,3.7,2.3,4.9,4c1.2,1.7,1.8,3.6,1.9,5.7h-7.5
					c-0.2-1.5-0.8-2.8-1.9-3.7s-2.6-1.4-4.4-1.4c-1.7,0-3,0.4-4.1,1.1c-1,0.7-1.5,1.7-1.5,3c0,0.9,0.3,1.7,0.9,2.2s1.5,0.9,2.6,1.3
					c1.1,0.3,2.8,0.7,5.2,1.1c2.4,0.4,4.4,1,6,1.7s2.9,1.7,3.9,3s1.5,3.1,1.5,5.4c0,2.2-0.6,4.1-1.8,5.8c-1.2,1.7-2.8,3.1-5,4
					c-2.1,1-4.5,1.5-7.1,1.5c-2.8,0-5.4-0.5-7.6-1.6c-2.2-1-4-2.5-5.2-4.3c-1.3-1.8-1.9-3.9-1.9-6.1C38.2,35.8,45.7,35.9,45.7,35.9z
					 M71.4,11.9h12.3c3.6,0,6.7,0.8,9.4,2.3s4.8,3.6,6.3,6.3c1.5,2.7,2.2,5.8,2.2,9.2c0,3.5-0.7,6.5-2.2,9.2s-3.6,4.8-6.3,6.3
					c-2.7,1.5-5.9,2.3-9.4,2.3H71.4C71.4,47.5,71.4,11.9,71.4,11.9z M83.7,41.1c3.2,0,5.7-1,7.5-3.1c1.8-2.1,2.7-4.9,2.7-8.3
					c0-3.5-0.9-6.2-2.7-8.3c-1.8-2.1-4.3-3.1-7.5-3.1H79v22.9L83.7,41.1L83.7,41.1z"/>
			</g>
			<g>
				<path id="a_1_" class="st1" d="M12.2,11.9v20.6c0,2.9,0.6,5,1.7,6.5s2.9,2.2,5.3,2.2s4.2-0.7,5.3-2.2c1.1-1.5,1.7-3.6,1.7-6.5
					V11.9h7.6v20.2c0,5.1-1.2,9-3.7,11.6c-2.5,2.7-6.1,4-10.9,4s-8.4-1.3-10.9-4C5.8,41,4.6,37.1,4.6,32.1V11.9
					C4.5,11.9,12.2,11.9,12.2,11.9z M45.7,35.9c0.1,1.8,0.9,3.2,2.2,4.2c1.3,1.1,3,1.6,5.2,1.6c1.8,0,3.3-0.4,4.4-1.1
					c1.1-0.8,1.7-1.8,1.7-3.2c0-0.9-0.3-1.7-0.9-2.3s-1.5-1-2.6-1.3s-2.9-0.7-5.3-1.2c-2.3-0.4-4.3-1-5.9-1.7s-2.9-1.7-3.9-3.1
					s-1.5-3.2-1.5-5.5c0-2.1,0.6-3.9,1.7-5.5s2.7-2.9,4.7-3.8s4.3-1.4,6.8-1.4c2.6,0,5,0.5,7,1.4c2.1,1,3.7,2.3,4.9,4
					c1.2,1.7,1.8,3.6,1.9,5.7h-7.5c-0.2-1.5-0.8-2.8-1.9-3.7s-2.6-1.4-4.4-1.4c-1.7,0-3,0.4-4.1,1.1c-1,0.7-1.5,1.7-1.5,3
					c0,0.9,0.3,1.7,0.9,2.2s1.5,0.9,2.6,1.3c1.1,0.3,2.8,0.7,5.2,1.1c2.4,0.4,4.4,1,6,1.7s2.9,1.7,3.9,3s1.5,3.1,1.5,5.4
					c0,2.2-0.6,4.1-1.8,5.8c-1.2,1.7-2.8,3.1-5,4c-2.1,1-4.5,1.5-7.1,1.5c-2.8,0-5.4-0.5-7.6-1.6c-2.2-1-4-2.5-5.2-4.3
					c-1.3-1.8-1.9-3.9-1.9-6.1C38.2,35.8,45.7,35.9,45.7,35.9z M71.4,11.9h12.3c3.6,0,6.7,0.8,9.4,2.3s4.8,3.6,6.3,6.3
					c1.5,2.7,2.2,5.8,2.2,9.2c0,3.5-0.7,6.5-2.2,9.2s-3.6,4.8-6.3,6.3c-2.7,1.5-5.9,2.3-9.4,2.3H71.4C71.4,47.5,71.4,11.9,71.4,11.9
					z M83.7,41.1c3.2,0,5.7-1,7.5-3.1c1.8-2.1,2.7-4.9,2.7-8.3c0-3.5-0.9-6.2-2.7-8.3c-1.8-2.1-4.3-3.1-7.5-3.1H79v22.9L83.7,41.1
					L83.7,41.1z"/>
			</g>
		</g>
	</g>
</g>
</svg>
