<?xml version="1.0" standalone="no"?>
<!DOCTYPE svg PUBLIC "-//W3C//DTD SVG 20010904//EN"
 "http://www.w3.org/TR/2001/REC-SVG-20010904/DTD/svg10.dtd">
<svg version="1.0" xmlns="http://www.w3.org/2000/svg"
 width="18px" height="18px" viewBox="0 0 200.000000 200.000000"
 preserveAspectRatio="xMidYMid meet">

<g transform="translate(0.000000,200.000000) scale(0.100000,-0.100000)"
fill="#000000" stroke="none">
<path d="M1 1548 c1 -403 2 -445 14 -378 20 120 73 260 134 355 47 73 140 182
193 226 29 24 55 47 58 50 3 4 30 22 60 41 111 70 244 122 370 143 67 12 25
13 -377 14 l-453 1 1 -452z"/>
<path d="M1170 1985 c413 -71 744 -402 815 -815 12 -67 13 -25 14 378 l1 452
-452 -1 c-403 -1 -445 -2 -378 -14z"/>
<path d="M803 1411 l-183 -186 76 -74 75 -75 190 190 189 190 -71 72 c-39 39
-76 71 -82 71 -7 -1 -94 -85 -194 -188z"/>
<path d="M922 1076 l-301 -302 77 -77 77 -76 302 302 302 302 -63 65 c-34 36
-69 70 -77 77 -12 10 -65 -39 -317 -291z"/>
<path d="M472 1078 c-40 -39 -72 -75 -72 -78 0 -3 33 -38 73 -78 l72 -72 75
75 75 75 -76 76 -75 75 -72 -73z"/>
<path d="M1152 847 l-302 -302 75 -75 75 -75 300 300 c165 165 300 302 300
305 0 5 -94 104 -126 132 -19 17 -30 8 -322 -285z"/>
<path d="M1 453 l-1 -453 453 1 c402 1 444 2 377 14 -275 47 -525 216 -681
460 -61 95 -114 235 -134 355 -12 67 -13 25 -14 -377z"/>
<path d="M1986 840 c-12 -103 -73 -267 -135 -365 -101 -159 -262 -303 -421
-377 -82 -39 -176 -69 -260 -83 -67 -12 -25 -13 378 -14 l452 -1 0 450 c0 248
-2 450 -4 450 -2 0 -6 -27 -10 -60z"/>
</g>
</svg>
