<?xml version="1.0" encoding="utf-8"?>
<!-- Generator: Adobe Illustrator 19.0.0, SVG Export Plug-In . SVG Version: 6.00 Build 0)  -->
<svg version="1.0" id="Layer_1" xmlns="http://www.w3.org/2000/svg" xmlns:xlink="http://www.w3.org/1999/xlink" x="0px" y="0px"
	 width="18px" height="18px" viewBox="0 0 18 18" style="enable-background:new 0 0 18 18;" xml:space="preserve">
<style type="text/css">
	.st0{fill:#FFFFFF;}
	.st1{fill:#F0F0F8;}
	.st2{fill:#FEBA35;}
	.st3{fill:#FEB11B;}
	.st4{fill:#FDF0D7;}
	.st5{display:none;fill:#253944;}
	.st6{fill:#253944;}
</style>
<circle class="st0" cx="9" cy="9" r="8.5"/>
<g>
	<path class="st1" d="M17.7,11c-0.5,2-1.6,3.7-3.2,5c-1.1,0.9-2.4,1.5-3.8,1.8c0.1-0.4,0.3-0.8,0.4-1.2c0.6-0.2,1.1-0.4,1.6-0.7
		c1.5-0.9,2.7-2.1,3.4-3.8c0.7-1.7,0.9-3.5,0.4-5.3c-0.2-0.8-0.6-1.4-0.9-2.1c0.2-0.4,0.3-0.7,0.5-1.1c0.1,0.1,1.1,1.5,1.5,2.9
		C18.2,8.6,18,10,17.7,11z"/>
	<path class="st1" d="M0.1,7.3c0.3-1.6,1.1-3.2,1.7-3.7C2,3.9,2.1,4.3,2.3,4.7C2,5.3,1.7,5.8,1.5,6.5C1.2,7.5,1,8.6,1.1,9.8
		c0.2,1.6,0.8,3.1,1.9,4.3c1,1.2,2.3,2,3.7,2.4c0.2,0.4,0.3,0.8,0.5,1.3c-1.3-0.3-2.5-0.8-3.5-1.6c-1.7-1.3-2.8-3-3.4-5.1
		C0.1,10.6-0.1,8.6,0.1,7.3z"/>
	<path class="st1" d="M13,1c-0.1,0.3-0.3,0.7-0.4,1c-0.2-0.1-0.4-0.2-0.6-0.2c-1.4-0.6-2.8-0.8-4.3-0.5C6.9,1.3,6.1,1.6,5.3,1.9
		C5.2,1.6,5,1.3,4.9,1C6.4-0.1,10.7-0.5,13,1z"/>
	<path class="st2" d="M10.8,17.8c-0.5,0.2-2.8,0.3-3.6,0c-0.2-0.4-0.3-0.8-0.5-1.3c1.5,0.4,3,0.4,4.5,0
		C11.1,16.9,10.9,17.4,10.8,17.8z"/>
	<path class="st2" d="M15.6,4.7c-0.4-0.6-0.6-0.7-0.9-1c-0.6-0.7-1.4-1.2-2.1-1.7c0.1-0.3,0.3-0.7,0.4-1c1.2,0.6,2.3,1.4,3.1,2.6
		C15.9,3.9,15.8,4.3,15.6,4.7z"/>
	<path class="st3" d="M5.3,1.9c-1.2,0.7-2.2,1.6-3,2.7C2.1,4.3,2,3.9,1.8,3.5C2.2,2.8,4.3,1.2,4.9,1C5,1.3,5.2,1.6,5.3,1.9z"/>
	<path class="st4" d="M11,5.9c0.1-0.5,0.4-1.3,0.6-1.8c0.3-0.6,1-0.8,1.6-0.5c0.4,0.2,0.9,0.7,0.7,1.4c-0.2,0.8-0.6,1.5-0.8,2.2
		c0,0.1-0.1,0.5-0.1,0.5c-0.2,0.2-0.4,0.3-0.6,0.6c-1.5,1.5-3,3-4.5,4.5c-0.2,0.2-0.2,0.3,0,0.4c0.3,0.3,0.6,0.6,0.9,0.9
		c0.2,0.2,0.3,0.3,0.5,0c0.6-0.7,1.3-1.3,2-2c-0.3,1.1-0.7,2.2-1.2,3.2c-0.4,0.8-1.7,0.8-2.1,0c-0.5-1-0.9-2.1-1.2-3.2
		c0.1,0.1,0.3,0.2,0.4,0c0.5-0.6,1-1.1,1.6-1.6c0,0.2,0,0.4,0.2,0.4c0.2,0,0.2-0.3,0.2-0.3L9.3,10c0.9-1,1.9-1.9,2.8-2.9
		C12.4,7,12.2,6.9,12,6.8C11.7,6.5,11.4,6.2,11,5.9z"/>
	<path class="st4" d="M8,8.5c-0.6,0.7-1.3,1.4-2,2l-0.4-1c0.1-0.1,0.2-0.2,0.3-0.3c0.3-0.2,0.3-0.4,0-0.6c-0.4-0.3-0.7-0.7-1-1
		C4.8,6.9,4.1,5.2,4,5C3.8,4.4,4.3,3.7,4.8,3.5c0.7-0.2,1.3,0.1,1.6,0.7c0.2,0.4,0.3,0.9,0.5,1.3C6.4,6,6.1,6.4,5.6,6.9
		c0.4,0.4,0.5,0.6,0.8,0.9c0.6,0.5,0.6,0.5,1.1,0c0,0,0.1-0.1,0.1-0.1C7.7,7.9,7.9,8.2,8,8.5z"/>
</g>
<polygon class="st5" points="5.4,6.9 9,3.5 10.3,4.9 6.9,8.2 "/>
<polygon class="st5" points="3.4,8.9 4.9,7.6 6.2,9 4.9,10.3 "/>
<polygon class="st5" points="5.5,11 11,5.5 12.4,6.9 6.9,12.5 "/>
<polygon class="st5" points="7.6,13.1 13,7.5 14.3,9 9,14.6 "/>
<rect x="7.1" y="10" transform="matrix(-0.7118 0.7024 -0.7024 -0.7118 26.5769 11.1996)" class="st6" width="7.8" height="2.1"/>
<rect x="5" y="8" transform="matrix(-0.7118 0.7024 -0.7024 -0.7118 21.65 9.1012)" class="st6" width="7.8" height="2.1"/>
<rect x="5.5" y="4.8" transform="matrix(-0.7118 0.7024 -0.7024 -0.7118 17.6664 4.4698)" class="st6" width="4.9" height="2.1"/>
<rect x="3.8" y="7.8" transform="matrix(-0.7118 0.7024 -0.7024 -0.7118 14.5616 11.7598)" class="st6" width="2.2" height="2.1"/>
</svg>
