<?xml version="1.0" encoding="utf-8"?>
<!-- Generator: Adobe Illustrator 23.0.1, SVG Export Plug-In . SVG Version: 6.00 Build 0)  -->
<svg version="1.1" id="Derive_Finance" xmlns="http://www.w3.org/2000/svg" xmlns:xlink="http://www.w3.org/1999/xlink" x="0px"
	 y="0px" viewBox="0 0 207 130" style="enable-background:new 0 0 207 130;" xml:space="preserve">
<style type="text/css">
	.st0{fill:#FFFFFF;}
	.st1{fill:url(#Derive_1_);}
</style>
<path id="E" class="st0" d="M190.5,106.8l3.3,0.4c-0.5,1.9-1.5,3.4-2.9,4.4s-3.2,1.6-5.3,1.6c-2.7,0-4.9-0.8-6.5-2.5s-2.4-4-2.4-7.1
	c0-3.1,0.8-5.6,2.4-7.3s3.7-2.6,6.3-2.6c2.5,0,4.5,0.8,6.1,2.5s2.4,4.1,2.4,7.2c0,0.2,0,0.5,0,0.8h-13.9c0.1,2.1,0.7,3.6,1.7,4.7
	s2.3,1.6,3.9,1.6c1.2,0,2.2-0.3,3-0.9S190,108.2,190.5,106.8z M180.1,101.7h10.4c-0.1-1.6-0.5-2.7-1.2-3.5c-1-1.2-2.3-1.8-3.9-1.8
	c-1.5,0-2.7,0.5-3.7,1.5S180.2,100.1,180.1,101.7z"/>
<path id="C" class="st0" d="M171.9,106l3.1,0.4c-0.3,2.1-1.2,3.8-2.6,5s-3.1,1.8-5.2,1.8c-2.6,0-4.6-0.8-6.2-2.5s-2.3-4.1-2.3-7.2
	c0-2,0.3-3.8,1-5.3s1.7-2.6,3.1-3.4s2.8-1.1,4.5-1.1c2,0,3.7,0.5,5,1.5s2.1,2.5,2.5,4.4l-3.1,0.5c-0.3-1.3-0.8-2.2-1.6-2.8
	s-1.6-0.9-2.7-0.9c-1.6,0-2.9,0.6-3.9,1.7s-1.5,3-1.5,5.4c0,2.5,0.5,4.3,1.4,5.5s2.2,1.7,3.8,1.7c1.2,0,2.3-0.4,3.1-1.1
	S171.7,107.6,171.9,106z"/>
<path id="N_1_" class="st0" d="M139.7,112.9V94.2h2.8v2.7c1.4-2.1,3.4-3.1,5.9-3.1c1.1,0,2.2,0.2,3.1,0.6s1.6,0.9,2.1,1.6
	s0.8,1.4,1,2.3c0.1,0.6,0.2,1.6,0.2,3.1v11.5h-3.2v-11.4c0-1.3-0.1-2.3-0.4-2.9s-0.7-1.1-1.3-1.5s-1.4-0.6-2.2-0.6
	c-1.3,0-2.5,0.4-3.5,1.3c-1,0.9-1.5,2.5-1.5,4.9v10.2H139.7z"/>
<path id="A" class="st0" d="M131.9,110.6c-1.2,1-2.3,1.7-3.4,2.1c-1.1,0.4-2.2,0.6-3.5,0.6c-2.1,0-3.6-0.5-4.7-1.5s-1.7-2.3-1.7-3.8
	c0-0.9,0.2-1.7,0.6-2.5s1-1.4,1.6-1.8s1.4-0.8,2.3-1c0.6-0.2,1.6-0.3,2.8-0.5c2.6-0.3,4.4-0.7,5.6-1.1c0-0.4,0-0.7,0-0.8
	c0-1.3-0.3-2.2-0.9-2.7c-0.8-0.7-2-1.1-3.6-1.1c-1.5,0-2.6,0.3-3.3,0.8s-1.2,1.4-1.6,2.8l-3.1-0.4c0.3-1.3,0.7-2.4,1.4-3.2
	s1.6-1.4,2.8-1.9s2.6-0.7,4.2-0.7c1.6,0,2.9,0.2,3.9,0.6s1.7,0.8,2.2,1.4s0.8,1.3,1,2.2c0.1,0.5,0.2,1.5,0.2,2.9v4.2
	c0,2.9,0.1,4.8,0.2,5.6s0.4,1.5,0.8,2.2h-3.3C132.2,112.2,132,111.4,131.9,110.6z M131.6,103.5c-1.1,0.5-2.9,0.9-5.2,1.2
	c-1.3,0.2-2.2,0.4-2.8,0.6s-1,0.6-1.2,1s-0.4,1-0.4,1.5c0,0.8,0.3,1.5,1,2.1s1.6,0.8,2.8,0.8c1.2,0,2.3-0.3,3.3-0.8s1.6-1.3,2.1-2.2
	c0.3-0.7,0.5-1.8,0.5-3.2V103.5z"/>
<path id="N" class="st0" d="M99.7,112.9V94.2h2.8v2.7c1.4-2.1,3.4-3.1,5.9-3.1c1.1,0,2.2,0.2,3.1,0.6s1.6,0.9,2.1,1.6s0.8,1.4,1,2.3
	c0.1,0.6,0.2,1.6,0.2,3.1v11.5h-3.2v-11.4c0-1.3-0.1-2.3-0.4-2.9s-0.7-1.1-1.3-1.5s-1.4-0.6-2.2-0.6c-1.3,0-2.5,0.4-3.5,1.3
	c-1,0.9-1.5,2.5-1.5,4.9v10.2H99.7z"/>
<path id="I" class="st0" d="M91.7,90.7v-3.6h3.2v3.6H91.7z M91.7,112.9V94.2h3.2v18.7H91.7z"/>
<path id="F" class="st0" d="M82.4,112.9V96.7h-2.8v-2.5h2.8v-2c0-1.3,0.1-2.2,0.3-2.8c0.3-0.8,0.8-1.5,1.6-2s1.8-0.8,3.2-0.8
	c0.9,0,1.9,0.1,3,0.3l-0.5,2.8c-0.7-0.1-1.3-0.2-1.9-0.2c-1,0-1.6,0.2-2,0.6s-0.6,1.2-0.6,2.3v1.7h3.6v2.5h-3.6v16.2H82.4z"/>
<linearGradient id="Derive_1_" gradientUnits="userSpaceOnUse" x1="71.1391" y1="95.2465" x2="17.1359" y2="41.2434">
	<stop  offset="0" style="stop-color:#F3A91C"/>
	<stop  offset="1" style="stop-color:#D0B06A"/>
</linearGradient>
<path id="Derive" class="st1" d="M70.7,54.1c-0.2-10.2-1-17.4-2.5-21.4c-1.5-4-3.4-7-5.8-8.8c-2.4-1.8-5.1-2.7-8.2-2.7
	c-3.5,0-6.8,1.1-10,3.2c-3.2,2.1-6.3,5.9-9.3,11.4c-0.8,1.5-1.4,2.4-1.9,2.7c-0.5,0.4-1.1,0.5-1.7,0.5c-1.1,0-2-0.3-2.7-1
	c-0.7-0.7-1-1.4-1-2.3c0-1.5,1.4-4.3,4.1-8.4c2.7-4.1,6.2-7.3,10.3-9.7c4.1-2.3,8.1-3.5,12-3.5c5.8,0,10.6,2.1,14.6,6.4
	c5.8,6.1,8.7,16.7,8.7,31.9c0,13.7-2.1,25.6-6.3,36c-4.2,10.3-9.9,18-17.2,23c-7.2,5-14.4,7.5-21.5,7.5c-6.7,0-12.1-2.1-16.1-6.2
	c-4.1-4.2-6.1-9.9-6.1-17.1c0-6.2,1.4-11.9,4.2-17.2c2.8-5.2,6.6-9.6,11.3-13c4.7-3.4,10.6-6.1,17.8-8.1
	C50.8,55.4,59.8,54.3,70.7,54.1z M70.6,61.1c-8.4,0.2-14.9,0.7-19.3,1.5C44,64,37.9,66.1,32.9,69c-5,2.9-8.9,6.8-11.6,11.7
	s-4.2,10-4.2,15.3c0,4.8,1.5,8.8,4.5,11.7c3,3,6.8,4.5,11.3,4.5c4.4,0,8.8-1.2,13.3-3.7c4.5-2.5,8.5-5.8,11.9-10.1
	c3.4-4.2,6.2-10,8.6-17.3C68.4,75.9,69.6,69.3,70.6,61.1z"/>
</svg>
