<?xml version="1.0" encoding="utf-8"?>
<!-- Generator: Adobe Illustrator 23.0.1, SVG Export Plug-In . SVG Version: 6.00 Build 0)  -->
<svg version="1.1" id="Layer_1" xmlns="http://www.w3.org/2000/svg" xmlns:xlink="http://www.w3.org/1999/xlink" x="0px" y="0px"
	 viewBox="0 0 1200 1200" style="enable-background:new 0 0 1200 1200;" xml:space="preserve">
<style type="text/css">
	.st0{fill:#0A0A0A;}
	.st1{fill:#191919;}
	.st2{fill:#FFFFFF;}
	.st3{fill:#FFC061;}
	.st4{fill:#FFEEA7;}
	.st5{fill:url(#Derive_3_);}
	.st6{fill:#212121;}
	.st7{fill:none;stroke:#FFFFFF;stroke-width:5;stroke-linecap:round;stroke-miterlimit:10;}
</style>
<g id="Derive_1_">
	<g id="Withdraw_1_">
		<path id="Shadow_1_" class="st0" d="M898.6,843.4c8.5,4.1,11.7,9.1,7.6,15c-28.5,41.2-156.5,41.8-218.6,42.6
			c-78.1,1-159.4,3.3-229.7-5.7c-29.4-3.7-96.1-6.6-107.5-20.3c-29.9-35.8,182.9-48.9,217.3-49.8
			C625.2,823.5,849.9,819.9,898.6,843.4z"/>
		<g id="Back_1_">
			<path class="st1" d="M373.1,843.5l482.1,1.5c5.6,0,10.1-4.5,10.1-10V504.3c0-5.5-4.5-10-10.1-10H386.6h-1.1
				c-16.2,0.3-21.6,11-21.8,19.5v0.5l-0.4,308.8c0,0,0.4,8.3,1.8,12.3s3.4,8.1,3.4,8.1L373.1,843.5z"/>
			<g>
				<path class="st2" d="M374.9,845.1c12,0,24,0.1,36.1,0.1c30,0.1,60,0.2,90,0.3c38.9,0.1,77.7,0.2,116.6,0.4
					c38.6,0.1,77.3,0.2,115.9,0.4c29.3,0.1,58.6,0.2,88,0.3c8.3,0,16.6,0.1,25,0.1c4.3,0,9.6,0.6,13.6-1.1
					c8.5-3.6,7.6-11.8,7.6-19.2c0-10.5,0-21.1,0-31.6c0-35.3,0-70.6,0-105.9c0-38.4,0-76.7,0-115.1c0-22.4,0-44.7,0-67.1
					c0-7.7-3.9-13.8-12.4-14c-5.1-0.1-10.2,0-15.3,0c-25.2,0-50.4,0-75.7,0c-37.1,0-74.2,0-111.2,0c-39.6,0-79.2,0-118.8,0
					c-32.3,0-64.7,0-97,0c-15.4,0-30.8,0-46.2,0c-13.7,0-26.5,6.8-26.9,21.9c-0.1,5.2,0,10.5,0,15.7c0,30.6-0.1,61.3-0.1,91.9
					c-0.1,39.2-0.1,78.5-0.2,117.7c0,25.9-0.1,51.8-0.1,77.8c0,9.3,1.1,17.8,5.1,26.5c0.3,0.6,0.9,0.9,1.5,0.9
					C371.9,845,373.4,845.1,374.9,845.1c2.1,0.1,5-3.1,1.8-3.2c-1.5,0-3.1-0.1-4.6-0.1c0.5,0.3,1,0.6,1.5,0.9
					c-4.4-9.4-5.1-17-5.1-26.6c0-10.1,0-20.1,0-30.2c0-34.9,0.1-69.7,0.1-104.6c0-37.1,0.1-74.3,0.1-111.4c0-18.6-0.4-37.2,0.1-55.7
					c0.2-8.6,4.9-16,13.8-17.9c2.5-0.5,5-0.5,7.5-0.5c5.7,0,11.5,0,17.2,0c25.6,0,51.3,0,76.9,0c36.9,0,73.7,0,110.6,0
					c38.9,0,77.8,0,116.8,0c31.8,0,63.5,0,95.3,0c15.4,0,30.9-0.4,46.3,0c8.2,0.2,9.5,6.7,9.5,13.1c0,8.7,0,17.3,0,26
					c0,32.9,0,65.9,0,98.8c0,38.5,0,77,0,115.5c0,25.9,0,51.8,0,77.7c0,6.1,1.4,15.4-6.9,16.5c-3.7,0.5-7.9,0-11.7,0
					c-22.7-0.1-45.3-0.1-68-0.2c-35.3-0.1-70.6-0.2-105.8-0.3c-39.2-0.1-78.5-0.2-117.7-0.4c-34.6-0.1-69.1-0.2-103.7-0.3
					c-21.2-0.1-42.4-0.1-63.6-0.2c-2.9,0-5.8,0-8.7,0C374.6,842,371.7,845.1,374.9,845.1z"/>
			</g>
		</g>
		<g id="Token_1_">
			<g id="XMLID_14_">
				<ellipse class="st3" cx="644.2" cy="451.2" rx="152.2" ry="152.2"/>
				<g>
					<path class="st3" d="M628.8,601.2c-61.7-7.2-114-52.3-129.6-112.6c-15.7-60.6,8.5-126.2,59.8-162c52.6-36.8,125-34.3,175.7,4.7
						c49.2,37.8,70.6,103.5,53.2,163c-17.6,60-72.5,104.7-135.3,107.6C644.7,602.4,636.7,602.1,628.8,601.2c-1.3-0.1-5.6,2.1-3,2.4
						c62.8,6.8,125.4-25.2,155.3-81.2c30.7-57.6,20.4-130.4-24.7-177.5c-44.6-46.5-115.6-59.8-174.3-33.9
						c-59,26-96.6,87.1-92.1,151.6c4.5,63.8,50.4,119.6,112.1,136.5c7.8,2.1,15.7,3.6,23.7,4.5C627.1,603.8,631.4,601.5,628.8,601.2
						z"/>
				</g>
			</g>
			
				<ellipse id="XMLID_13_" transform="matrix(0.7071 -0.7071 0.7071 0.7071 -139.4497 575.7839)" class="st4" cx="625.3" cy="456.2" rx="152.2" ry="152.2"/>
			<g id="XMLID_12_">
				<path class="st3" d="M612.3,605.7C551,598.5,499.1,554.1,483,494.4c-16.1-60,7-125.5,57.4-161.9c51.3-37.1,121.9-34,172,3.8
					c49.3,37.3,71.4,102.8,54.6,162.3c-16.6,58.7-69.2,104.4-130.8,107.7C628.2,606.8,620.3,606.5,612.3,605.7
					c-2.2-0.2-4.8,0.3-6.7,1.3c-0.6,0.3-3.5,2.1-1.2,2.3c63.7,6.8,128.5-24.5,159.4-81.2c31.3-57.5,21.6-130.3-23.2-177.9
					c-45.2-48-116.8-60.2-177-34.9c-60,25.2-99.1,86.4-95.1,151.7c3.9,64.1,49.5,120.1,111.3,137.5c8.1,2.3,16.3,3.8,24.6,4.8
					c2.2,0.3,4.8-0.3,6.7-1.3C611.7,607.7,614.6,605.9,612.3,605.7z"/>
			</g>
			<g id="XMLID_11_">
				<path class="st3" d="M614.8,574.8c-48.6-5.7-89.6-41.3-102.2-88.5c-12.8-47.9,5.8-100.4,46.4-129c40.7-28.8,96.4-26,135.7,4.1
					c38.9,29.9,56.2,81.7,42.8,128.9c-13.2,46.6-55.2,82.7-104.2,85.1C627.1,575.7,621,575.4,614.8,574.8c-2.1-0.2-5.2,0.3-6.8,1.8
					c-1.3,1.2-1.4,2.4,0.7,2.7c51.3,5.4,103.2-19.9,128.1-65.5c25.3-46.2,17.3-105-18.9-143.1c-36.4-38.3-94.6-48.4-142.7-27.5
					C527.3,364,496,412.4,499,464.9c3,51.8,40.3,97.2,90.3,110.7c6.3,1.7,12.8,2.9,19.3,3.7c2.1,0.2,5.3-0.3,6.8-1.8
					C616.8,576.2,616.9,575,614.8,574.8z"/>
			</g>
			
				<linearGradient id="Derive_3_" gradientUnits="userSpaceOnUse" x1="791.8452" y1="774.4548" x2="708.4122" y2="857.8876" gradientTransform="matrix(0.9546 -0.2978 -0.2978 -0.9546 147.7211 1458.6566)">
				<stop  offset="0" style="stop-color:#DFA632"/>
				<stop  offset="1" style="stop-color:#C5AD6E"/>
			</linearGradient>
			<path id="Derive_2_" class="st5" d="M653.5,423c-5-14.9-9.5-25.2-13.5-30.4c-4-5.2-8.2-8.8-12.6-10.3c-4.4-1.5-8.8-1.6-13.3-0.2
				c-5.2,1.6-9.5,4.7-13.3,9.3s-6.6,11.6-8.5,21.1c-0.5,2.6-1,4.2-1.6,4.9c-0.6,0.8-1.4,1.2-2.3,1.5c-1.6,0.5-3.1,0.5-4.4-0.2
				c-1.4-0.7-2.1-1.6-2.5-2.9c-0.7-2.2,0.1-7,2.2-14.3c2.1-7.3,5.8-13.6,10.7-19c5-5.3,10.3-8.9,16.1-10.7
				c8.5-2.7,16.6-1.8,24.5,2.7c11.4,6.3,20.5,20.6,27.5,43c6.3,20.2,8.7,38.7,7.3,56c-1.5,17.1-6.3,31.1-14.8,41.8
				c-8.3,10.7-17.8,17.7-28.2,20.9c-9.9,3.1-18.8,2.5-26.6-1.7c-8-4.3-13.5-11.8-16.9-22.4c-2.9-9.1-3.4-18.2-1.7-27.3
				c1.7-9,5.3-17.2,10.7-24.4c5.4-7.2,12.8-13.9,22.5-20.1C624.7,434.1,637.5,428.3,653.5,423z M656.5,433.4
				c-12.3,4.2-21.6,7.9-27.8,11.1c-10.1,5.4-18.1,11.3-24.2,17.9c-6,6.6-10,14.1-11.7,22.6s-1.6,16.7,0.8,24.5
				c2.2,7.1,6.3,12.3,12,15.2c5.8,3,12.1,3.5,18.7,1.4c6.5-2,12.4-5.8,17.9-11.6s9.9-12.5,12.9-20.4c3.1-7.8,4.5-17.6,4.7-29.5
				C660.1,456.2,658.8,445.9,656.5,433.4z"/>
		</g>
		<g id="Wallet_1_">
			<path id="XMLID_10_" class="st0" d="M367,825.9l0.4-308.8l0.4-2.8c0,0,2.7,6.2,12.6,5.6h448.3c5.1,0,9.3,4.2,9.3,9.3v330.1
				c0,5.2-4.1,9.3-9.3,9.3H409.5C386.1,868.7,367,849.5,367,825.9z"/>
			<path id="XMLID_9_" d="M366.6,811.4l0.4-291.5l0.9-2.1l2.7,2.1c81.9,0,163.7-0.1,245.6-0.1c54.5,0,108.9,0,163.4-0.1
				c25.3,0,40.2,2.5,45,31.2c7.3,43.4,6.8,87.9,3.2,131.6c-3.1,38-3.8,83.3-22.9,117.3c-42.3,75.2-164.4,52.4-235.4,52.4
				c-53.9,0-107.7,0-161.6,0C385,852.2,366.6,833.9,366.6,811.4z"/>
			<g id="XMLID_8_">
				<path class="st2" d="M368.1,825.6c0-35.4,0.1-70.8,0.1-106.2c0.1-55.7,0.1-111.4,0.2-167.1c0-8.9,0-17.8,0-26.6
					c0-3.9-0.2-7.8,0.4-11.7c-1.6,0.3-3.2,0.6-4.9,0.9c4.1,8.8,19.4,6.6,27.6,6.6c17.3,0,34.5,0,51.8,0c55.7,0,111.4,0,167.1,0
					c54.1,0,108.2,0,162.3,0c15.3,0,30.6,0,45.9,0c2.6,0,5.3-0.2,8,0c7.1,0.4,7.9,6.2,7.9,11.6c0,42.7,0,85.4,0,128.1
					c0,54.9,0,109.8,0,164.7c0,11,0.7,22.4,0,33.4c-0.5,6.7-4.6,7.7-9.7,7.7c-5.1,0-10.2,0-15.3,0c-46.8,0-93.5,0-140.3,0
					c-58.2,0-116.4,0-174.7,0c-28.8,0-57.6,0.6-86.4,0C385.9,866.6,368.4,847.8,368.1,825.6c0-2.4-4.9-1.5-4.9,0.4
					c0.3,20.3,13.9,38.3,34,43c4.8,1.1,9.6,1.2,14.5,1.2c14.2,0,28.3,0,42.5,0c55,0,110,0,164.9,0c54.5,0,109,0,163.5,0
					c13.6,0,27.2,0,40.7,0c5.3,0,10.8-0.3,14.2-5.3c2.5-3.6,1.9-7.9,1.9-12c0-45.7,0-91.4,0-137.1c0-53.9,0-107.9,0-161.8
					c0-6.6,0-13.1,0-19.7c0-4.9,0.6-10.1-3.7-13.6c-3.4-2.8-7.4-2.6-11.4-2.6c-5.2,0-10.5,0-15.7,0c-46.4,0-92.8,0-139.3,0
					c-60,0-119.9,0-179.9,0c-35.6,0-71.2,0-106.8,0c-4.8,0-11.4,0.4-13.8-4.7c-0.8-1.8-4.6-1-4.9,0.9c-1.5,10.2-0.4,21.1-0.5,31.3
					c0,24.3-0.1,48.6-0.1,73c-0.1,56.1-0.1,112.3-0.2,168.4c0,13,0,25.9-0.1,38.9C363.2,828.4,368.1,827.6,368.1,825.6z"/>
			</g>
			<path class="st6" d="M834.1,667.9h-86.4l-19.4,23.2c-8.8,10.5-8.5,27.6,0.7,37.6l17.7,19.2h87.4V667.9z"/>
			<path id="XMLID_7_" class="st0" d="M777.2,657.6h-22.6l-21,23.2c-9.5,10.5-9.2,27.6,0.8,37.6l19.1,19.2h109.1
				c4.3,0,7.7-3.8,7.7-8.5v-63c0-4.7-3.5-8.5-7.7-8.5h-62.2H777.2z"/>
			<path id="XMLID_6_" d="M774,657.6h-19.8l-18.3,20.7c-8.3,9.4-8,24.7,0.7,33.7l16.7,17.2c16,0,32,0,48,0
				c18.6,0,40.9,5.9,49.9-15.5c6.2-14.7,4-32.9,4-48.5c0-4.2-3-7.6-6.7-7.6h-54.3L774,657.6L774,657.6z"/>
			<g id="XMLID_5_">
				<path class="st2" d="M778.1,656.1c-7.1,0-14.2-0.1-21.3,0c-5.3,0.1-8.1,5.3-11.4,8.9c-4.6,5.1-9.3,10.1-13.8,15.2
					c-8,9.3-9.8,22.7-3.7,33.5c3.8,6.7,10.8,12.2,16.2,17.6c2.5,2.5,5.5,7.3,9.3,7.6c12.3,1,25.2,0,37.6,0c17.9,0,35.9,0,53.8,0
					c7.7,0,25.9,3.2,27.8-7.7c0.8-4.3,0.1-9.3,0.1-13.7c0-9.1,0-18.2,0-27.3c0-7.4,0-14.8,0-22.3c0-5.8-1.1-11.5-8.1-12
					c-13.8-1-28.1,0-42,0c-12,0-23.9,0-35.9,0C783.9,656.1,781,656.1,778.1,656.1c-1.9,0-5.1,2.9-1.8,2.9c24,0,48,0,72,0
					c4.5,0,9.7-0.7,14.1,0c6,1,5.5,6.4,5.5,11c0,14.8,0,29.7,0,44.5c0,5,0.1,10.1,0,15.2c-0.1,4.3-1.8,6.5-5.8,6.5
					c-11.8,0-23.6,0-35.4,0c-16,0-31.9,0-47.9,0c-5.9,0-11.8,0-17.7,0c-1.6,0-3.3-0.1-5,0c-2.1,0.1-1.4-0.6-0.5,0.4
					c-8.7-9.8-23-18.5-26-32.1c-3.9-18,12.4-30.6,23.1-42.5c1.2-1.3,2.4-2.7,3.7-4c-1,0.3-1.9,0.7-2.9,1c7.5,0,15.1,0,22.6,0
					C778.1,659,781.3,656.1,778.1,656.1z"/>
			</g>
			<g id="XMLID_1_">
				<circle cx="788.9" cy="698.4" r="24.3"/>
				<g>
					<path class="st2" d="M810.7,698.7c-0.3,12.1-9.5,23.2-22.4,22.4c-11.9-0.7-21.3-11.1-21.4-22.9c-0.1-12.2,9.8-23.1,22.4-22.4
						C801.4,676.4,810.4,686.9,810.7,698.7c0.1,2.3,4.9,1.4,4.9-0.5c-0.7-24-30.8-34.2-46.8-16.6c-7.5,8.3-8.8,20.8-2.9,30.4
						c5.7,9.3,16.9,13.7,27.4,11.8c12.5-2.3,21.9-12.8,22.3-25.6C815.6,695.9,810.8,696.7,810.7,698.7z"/>
				</g>
			</g>
		</g>
	</g>
	<g id="Arrow">
		<line class="st7" x1="591.7" y1="630.3" x2="591.7" y2="739.5"/>
		<line class="st7" x1="625.9" y1="705.4" x2="591.7" y2="739.5"/>
		<line class="st7" x1="557.9" y1="705.4" x2="592" y2="739.5"/>
		<line class="st7" x1="631" y1="765.3" x2="552.5" y2="765.3"/>
	</g>
</g>
</svg>
